<?xml version="1.0" encoding="UTF-8"?>
<svg xmlns="http://www.w3.org/2000/svg" xmlns:xlink="http://www.w3.org/1999/xlink" viewBox="0 0 100 100" width="100px" height="100px">
<g id="surface287190165">
<path style=" stroke:none;fill-rule:nonzero;fill:rgb(100%,100%,100%);fill-opacity:1;" d="M 59.734375 6.015625 C 59.523438 6.046875 59.3125 6.109375 59.109375 6.203125 C 57.390625 7.054688 55.4375 9.585938 55.0625 10.085938 C 55.039062 10.117188 55.015625 10.148438 55 10.179688 C 53.070312 13.070312 52.039062 16.453125 52 19.976562 C 51.976562 22.617188 52.492188 25.234375 53.539062 27.757812 C 55.976562 33.609375 61.039062 38.453125 67.0625 40.71875 C 67.265625 40.789062 67.460938 40.859375 67.8125 40.984375 C 67.84375 41 68.140625 41.09375 68.1875 41.101562 L 68.40625 41.179688 C 68.71875 41.28125 69.039062 41.382812 69.351562 41.445312 C 70.9375 41.765625 72.484375 41.945312 73.9375 41.992188 C 74.1875 41.992188 74.4375 42 74.6875 42 C 85.648438 42 89.898438 34.265625 91.3125 31.6875 C 91.453125 31.4375 91.554688 31.234375 91.648438 31.109375 C 91.648438 31.101562 91.648438 31.101562 91.65625 31.09375 C 92.273438 30.179688 92.039062 28.9375 91.125 28.3125 C 90.21875 27.695312 88.976562 27.929688 88.351562 28.84375 L 88.34375 28.84375 C 85.421875 33.148438 80.421875 34.453125 73.492188 32.734375 C 72.976562 32.609375 72.414062 32.414062 71.914062 32.226562 C 71.257812 31.992188 70.601562 31.71875 69.992188 31.421875 C 68.78125 30.820312 67.640625 30.101562 66.609375 29.304688 C 60.515625 24.578125 58.132812 14.742188 61.695312 9.0625 C 62.171875 8.304688 62.085938 7.320312 61.484375 6.65625 C 61.03125 6.15625 60.375 5.929688 59.734375 6.015625 Z M 42.015625 10 C 41.5625 9.992188 41.101562 10.140625 40.726562 10.453125 C 37.703125 12.914062 34.609375 16.945312 34.476562 17.109375 C 34.460938 17.140625 34.445312 17.164062 34.421875 17.195312 C 28.953125 25.15625 28.539062 36.484375 33.375 46.054688 C 34.132812 47.570312 34.992188 49.015625 35.90625 50.34375 L 36.179688 50.734375 C 36.953125 51.867188 37.820312 53.148438 38.929688 54.148438 C 39.3125 54.585938 39.726562 55.007812 40.132812 55.414062 L 40.328125 55.617188 L 40.492188 55.78125 C 40.90625 56.179688 41.328125 56.585938 41.765625 56.976562 L 41.773438 56.976562 C 41.804688 57.023438 41.851562 57.054688 41.890625 57.09375 C 42.382812 57.53125 42.882812 57.945312 43.546875 58.46875 L 43.726562 58.601562 C 44.242188 59.015625 44.765625 59.40625 45.304688 59.789062 C 45.359375 59.828125 45.414062 59.867188 45.46875 59.90625 C 45.65625 60.03125 45.84375 60.148438 46.03125 60.28125 L 46.21875 60.40625 L 46.4375 60.546875 C 46.835938 60.8125 47.226562 61.054688 47.78125 61.375 C 48.140625 61.59375 48.523438 61.8125 48.773438 61.9375 C 48.882812 62 49 62.0625 49.273438 62.210938 L 49.882812 62.53125 C 49.914062 62.546875 50.054688 62.609375 50.085938 62.625 C 50.484375 62.828125 50.898438 63.023438 51.3125 63.210938 L 51.945312 63.492188 C 52.359375 63.671875 52.78125 63.84375 53.296875 64.039062 L 53.53125 64.125 C 53.546875 64.140625 53.742188 64.210938 53.757812 64.21875 C 54.132812 64.351562 54.515625 64.484375 54.898438 64.609375 L 55.773438 64.898438 C 56.210938 65.046875 56.71875 65.21875 57.273438 65.3125 C 60 65.765625 62.648438 66 65.15625 66 C 65.453125 66 65.75 65.992188 66.039062 65.992188 C 88.117188 65.507812 93.859375 46.75 93.914062 46.5625 C 94.1875 45.617188 93.742188 44.609375 92.851562 44.1875 C 91.960938 43.765625 90.898438 44.0625 90.34375 44.875 C 84.75 53.046875 74.171875 56.5 63.398438 53.65625 C 62.898438 53.53125 62.414062 53.390625 61.8125 53.195312 C 61.710938 53.164062 61.625 53.132812 61.460938 53.070312 C 61.109375 52.960938 60.765625 52.84375 60.375 52.695312 L 59.820312 52.484375 C 59.5 52.359375 59.179688 52.234375 58.789062 52.0625 L 58.53125 51.945312 C 58.054688 51.742188 57.59375 51.515625 57.179688 51.3125 L 56.039062 50.71875 C 55.78125 50.59375 55.554688 50.453125 55.203125 50.242188 L 55.007812 50.132812 L 54.8125 50.015625 C 54.523438 49.84375 54.234375 49.664062 53.96875 49.476562 L 53.78125 49.359375 C 53.765625 49.351562 53.609375 49.242188 53.59375 49.226562 C 53.359375 49.078125 53.132812 48.929688 52.914062 48.789062 C 52.429688 48.445312 51.953125 48.085938 51.398438 47.648438 L 51.179688 47.46875 C 46.023438 43.351562 42.210938 37.851562 40.421875 31.953125 C 38.757812 26.539062 39.992188 19.453125 43.726562 13 C 44.210938 12.164062 44.03125 11.101562 43.289062 10.476562 C 42.921875 10.164062 42.46875 10 42.015625 10 Z M 20.007812 16 C 19.53125 16 19.046875 16.171875 18.664062 16.515625 C 14.84375 19.945312 11.984375 24.390625 11.671875 24.898438 C 3.5 36.796875 5.078125 55.289062 10.6875 66.59375 C 10.796875 66.828125 10.914062 67.054688 11.03125 67.28125 L 11.109375 67.40625 C 11.210938 67.632812 11.328125 67.867188 11.367188 67.914062 C 11.429688 68.0625 11.523438 68.226562 11.5625 68.273438 C 11.65625 68.46875 11.75 68.640625 11.921875 68.9375 L 12.5625 70.039062 C 12.65625 70.1875 12.75 70.34375 12.78125 70.398438 C 12.90625 70.601562 13.039062 70.8125 13.171875 71.023438 L 13.484375 71.523438 C 13.578125 71.671875 13.671875 71.804688 13.734375 71.882812 C 14.046875 72.367188 14.359375 72.851562 14.703125 73.3125 C 14.71875 73.335938 14.734375 73.351562 14.75 73.367188 L 14.875 73.539062 C 15.15625 73.945312 15.445312 74.335938 15.703125 74.65625 L 16.84375 76.101562 C 16.859375 76.117188 16.984375 76.265625 16.992188 76.28125 L 17.15625 76.46875 C 17.5 76.890625 17.867188 77.3125 18.234375 77.71875 C 18.289062 77.78125 18.34375 77.835938 18.398438 77.898438 C 18.75 78.28125 19.109375 78.664062 19.484375 79.0625 L 19.84375 79.40625 C 20.140625 79.71875 20.4375 80.023438 20.75 80.3125 C 20.75 80.320312 20.898438 80.460938 20.898438 80.460938 L 21.210938 80.75 C 21.585938 81.109375 21.976562 81.46875 22.273438 81.71875 C 22.289062 81.742188 22.570312 81.984375 22.59375 82 C 22.960938 82.328125 23.328125 82.640625 23.703125 82.945312 L 25.617188 84.460938 C 25.9375 84.695312 26.265625 84.929688 26.640625 85.203125 C 26.765625 85.296875 26.898438 85.390625 27.03125 85.476562 C 27.085938 85.523438 27.148438 85.570312 27.1875 85.59375 L 28.625 86.554688 C 29.148438 86.898438 29.671875 87.21875 30.3125 87.601562 L 30.65625 87.796875 C 31.054688 88.03125 31.460938 88.265625 31.84375 88.46875 C 32.070312 88.59375 32.296875 88.703125 32.492188 88.804688 C 32.765625 88.953125 33.0625 89.117188 33.515625 89.335938 C 33.554688 89.359375 33.875 89.515625 33.914062 89.53125 C 34.367188 89.757812 34.828125 89.96875 35.40625 90.226562 C 35.40625 90.234375 35.59375 90.320312 35.59375 90.320312 C 36.125 90.546875 36.640625 90.765625 37.320312 91.039062 C 37.429688 91.085938 37.539062 91.125 37.5625 91.132812 C 38.046875 91.320312 38.554688 91.507812 38.96875 91.65625 C 39.007812 91.671875 39.21875 91.757812 39.257812 91.773438 C 39.8125 91.960938 40.359375 92.140625 41.0625 92.359375 C 41.179688 92.398438 41.304688 92.4375 41.320312 92.4375 L 41.71875 92.5625 C 42.203125 92.710938 42.6875 92.867188 43.210938 92.96875 C 46.929688 93.648438 50.5625 94 54 94 L 54.007812 94 C 82.65625 94 91.78125 70.945312 91.875 70.710938 C 92.226562 69.78125 91.84375 68.734375 90.96875 68.25 C 90.109375 67.773438 89.015625 68 88.40625 68.789062 C 81.054688 78.46875 67.1875 82.0625 51.3125 78.414062 C 50.929688 78.320312 50.539062 78.210938 50.15625 78.09375 L 49.40625 77.867188 C 48.898438 77.710938 48.390625 77.539062 47.898438 77.367188 C 47.890625 77.367188 47.664062 77.28125 47.664062 77.28125 C 47.226562 77.132812 46.789062 76.960938 46.40625 76.8125 L 45.96875 76.640625 C 45.484375 76.445312 45 76.242188 44.53125 76.03125 L 44.257812 75.914062 C 43.835938 75.71875 43.429688 75.53125 43.023438 75.328125 C 42.992188 75.3125 42.671875 75.15625 42.640625 75.148438 C 42.359375 75.007812 42.078125 74.859375 41.71875 74.664062 L 40.085938 73.789062 C 39.921875 73.679688 39.75 73.578125 39.585938 73.492188 C 39.09375 73.1875 38.585938 72.882812 38.085938 72.5625 C 37.96875 72.492188 37.867188 72.414062 37.671875 72.28125 C 37.328125 72.0625 36.992188 71.835938 36.5 71.492188 L 36.304688 71.351562 C 35.96875 71.117188 35.640625 70.867188 35.367188 70.664062 C 35.195312 70.539062 35.023438 70.398438 34.742188 70.1875 C 34.492188 69.992188 34.242188 69.804688 34.007812 69.617188 L 33.570312 69.257812 C 33.203125 68.960938 32.859375 68.648438 32.5 68.34375 C 32.453125 68.296875 32.414062 68.265625 32.359375 68.226562 C 31.960938 67.859375 31.554688 67.492188 31.070312 67.03125 L 29.65625 65.625 C 29.3125 65.273438 28.96875 64.914062 28.578125 64.484375 C 28.21875 64.085938 27.875 63.6875 27.414062 63.140625 L 26.570312 62.109375 C 26.46875 61.960938 26.359375 61.8125 26.226562 61.65625 C 25.9375 61.265625 25.648438 60.882812 25.359375 60.476562 C 17.578125 49.757812 15.546875 27.382812 21.609375 19.1875 C 22.21875 18.367188 22.109375 17.210938 21.34375 16.515625 C 20.96875 16.171875 20.484375 16 20.007812 16 Z M 20.007812 16 "/>
</g>
</svg>
