<?xml version="1.0" encoding="UTF-8"?>
<svg xmlns="http://www.w3.org/2000/svg" xmlns:xlink="http://www.w3.org/1999/xlink" viewBox="0 0 100 100" width="100px" height="100px">
<g id="surface8443051">
<path style=" stroke:none;fill-rule:nonzero;fill:rgb(100%,100%,100%);fill-opacity:1;" d="M 0.00390625 73.003906 L 4.003906 73.003906 L 4.003906 58.242188 L 9.558594 70.859375 C 10.246094 72.433594 11.183594 72.988281 13.023438 72.988281 C 14.863281 72.988281 15.761719 72.433594 16.449219 70.859375 L 22.003906 58.566406 L 22.003906 73.003906 L 26.003906 73.003906 L 26.003906 57.882812 C 26.003906 56.429688 25.425781 55.726562 24.234375 55.363281 C 21.386719 54.464844 19.476562 55.238281 18.609375 57.179688 L 12.914062 70.011719 L 7.394531 57.179688 C 6.566406 55.242188 4.617188 54.464844 1.769531 55.363281 C 0.578125 55.726562 0 56.425781 0 57.878906 L 0 73 L 0.00390625 73 Z M 0.00390625 73.003906 "/>
<path style=" stroke:none;fill-rule:nonzero;fill:rgb(100%,100%,100%);fill-opacity:1;" d="M 28.003906 61.003906 L 32.003906 61.003906 L 32.003906 69.449219 C 31.972656 69.867188 32.136719 70.972656 34.066406 71.003906 C 35.046875 71.019531 39.941406 71.003906 40.003906 71.003906 L 40.003906 61.003906 L 44.003906 61.003906 C 44.019531 61.003906 44.003906 73.433594 44.003906 73.488281 C 44.023438 76.554688 40.195312 76.949219 38.433594 77.003906 L 28.003906 77.003906 L 28.003906 75.003906 C 28.023438 75.003906 37.976562 75.003906 38.007812 75.003906 C 40.273438 74.761719 40.003906 73.515625 40.003906 73.136719 L 40.003906 73.003906 L 33.730469 73.003906 C 30.25 72.972656 28.03125 71.4375 28.007812 69.691406 C 28.003906 69.527344 28.082031 61.078125 28.003906 61.003906 Z M 28.003906 61.003906 "/>
<path style=" stroke:none;fill-rule:nonzero;fill:rgb(100%,100%,100%);fill-opacity:1;" d="M 46.003906 73.003906 L 56.015625 73.003906 C 57.328125 73.003906 58.605469 72.726562 59.617188 72.253906 C 61.304688 71.476562 62 70.429688 62 69.050781 L 62 66.203125 C 62 63.128906 58.1875 63.003906 56 63.003906 L 52 63.003906 C 50.425781 63.003906 50.1875 62.050781 50 61.003906 L 50 59.003906 C 50.1875 58.203125 50.539062 57.128906 51.921875 57.003906 C 53.535156 57.003906 61.996094 57.003906 61.996094 57.003906 L 61.996094 55.003906 L 52.484375 55.003906 C 50.914062 55.003906 45.996094 55.191406 45.996094 59.003906 L 45.996094 61.476562 C 45.996094 63.226562 47.535156 64.648438 50.871094 65 C 51.246094 65.023438 51.621094 65.050781 51.996094 65.050781 C 51.996094 65.050781 55.882812 64.976562 55.996094 65 C 58.246094 65 57.996094 66.75 57.996094 67 L 57.996094 69 C 57.996094 69.273438 57.933594 71 55.972656 71 C 55.824219 71 45.996094 71 45.996094 71 L 45.996094 73.003906 Z M 46.003906 73.003906 "/>
<path style=" stroke:none;fill-rule:nonzero;fill:rgb(100%,100%,100%);fill-opacity:1;" d="M 84 68.917969 C 84 71.332031 85.363281 72.683594 88.984375 72.957031 C 89.320312 72.980469 89.660156 73 90 73 L 100 73 L 100 71 L 90.761719 71 C 88.695312 71 88 70.132812 88 68.894531 L 88 55 L 84 55 Z M 84 68.917969 "/>
<path style=" stroke:none;fill-rule:nonzero;fill:rgb(100%,100%,100%);fill-opacity:1;" d="M 63.964844 69.003906 L 63.964844 59.003906 C 63.964844 56.878906 65.007812 55.410156 67.957031 55.003906 L 77.632812 55.003906 C 80.582031 55.410156 81.964844 56.875 81.964844 59.003906 L 81.964844 68.964844 C 81.964844 70.6875 81.519531 71.613281 80.058594 72.210938 L 83.160156 75 L 78.660156 75 L 76.429688 73 L 73.808594 73 L 69.359375 73.023438 C 68.714844 73.023438 68.039062 72.933594 67.292969 72.730469 C 65.054688 72.121094 63.964844 70.945312 63.964844 69.003906 Z M 67.964844 69.003906 C 68.171875 69.976562 68.953125 71.003906 70.339844 71.003906 L 74.226562 71.003906 L 72 69.003906 L 76.53125 69.003906 L 77.613281 70.007812 C 77.613281 70.007812 78 69.691406 78 69.003906 C 78 68.316406 77.964844 59.003906 77.964844 59.003906 C 77.761719 58.097656 76.847656 57.003906 75.492188 57.003906 L 70.34375 57.003906 C 68.785156 57.003906 67.96875 58.144531 67.96875 59.207031 Z M 67.964844 69.003906 "/>
<path style=" stroke:none;fill-rule:nonzero;fill:rgb(100%,100%,100%);fill-opacity:1;" d="M 96.246094 52.894531 C 94.101562 52.835938 92.460938 53.035156 91.058594 53.625 C 90.660156 53.792969 90.023438 53.796875 89.957031 54.296875 C 90.175781 54.527344 90.210938 54.871094 90.386719 55.152344 C 90.71875 55.695312 91.285156 56.421875 91.789062 56.800781 C 92.339844 57.214844 92.910156 57.664062 93.5 58.023438 C 94.550781 58.664062 95.722656 59.027344 96.734375 59.671875 C 97.332031 60.046875 97.921875 60.527344 98.507812 60.953125 C 98.792969 61.164062 98.984375 61.492188 99.359375 61.625 C 99.359375 61.605469 99.359375 61.585938 99.359375 61.566406 C 99.164062 61.316406 99.113281 60.972656 98.933594 60.707031 C 98.667969 60.445312 98.402344 60.179688 98.140625 59.914062 C 97.363281 58.886719 96.378906 57.980469 95.332031 57.230469 C 94.496094 56.628906 92.628906 55.820312 92.277344 54.847656 C 92.257812 54.828125 92.238281 54.808594 92.214844 54.785156 C 92.804688 54.71875 93.5 54.503906 94.046875 54.359375 C 94.964844 54.113281 95.785156 54.175781 96.730469 53.929688 C 97.160156 53.808594 97.585938 53.6875 98.011719 53.566406 C 98.011719 53.484375 98.011719 53.402344 98.011719 53.320312 C 97.535156 52.828125 97.191406 52.179688 96.667969 51.734375 C 95.300781 50.570312 93.808594 49.40625 92.273438 48.433594 C 91.421875 47.898438 90.367188 47.546875 89.464844 47.089844 C 89.160156 46.9375 88.628906 46.859375 88.425781 46.605469 C 87.953125 46 87.695312 45.230469 87.328125 44.527344 C 86.5625 43.054688 85.808594 41.441406 85.132812 39.890625 C 84.667969 38.832031 84.363281 37.785156 83.789062 36.835938 C 81.015625 32.277344 78.027344 29.523438 73.410156 26.820312 C 72.425781 26.246094 71.238281 26.019531 69.988281 25.722656 C 69.316406 25.679688 68.644531 25.640625 67.972656 25.597656 C 67.558594 25.425781 67.136719 24.925781 66.746094 24.679688 C 65.214844 23.710938 61.289062 21.609375 60.152344 24.375 C 59.4375 26.121094 61.226562 27.824219 61.863281 28.710938 C 62.3125 29.332031 62.886719 30.027344 63.207031 30.726562 C 63.417969 31.183594 63.457031 31.644531 63.636719 32.132812 C 64.078125 33.328125 64.78125 34.691406 65.355469 35.796875 C 65.644531 36.355469 65.964844 36.945312 66.332031 37.445312 C 66.558594 37.75 66.945312 37.886719 67.007812 38.359375 C 66.628906 38.886719 66.609375 39.707031 66.394531 40.378906 C 65.441406 43.386719 65.800781 47.128906 67.191406 49.351562 C 67.613281 50.035156 68.617188 51.503906 69.996094 50.941406 C 71.203125 50.449219 70.933594 48.925781 71.277344 47.582031 C 71.355469 47.277344 71.308594 47.054688 71.460938 46.851562 C 71.460938 46.871094 71.460938 46.890625 71.460938 46.914062 C 71.828125 47.644531 72.195312 48.378906 72.5625 49.109375 C 73.378906 50.421875 74.820312 51.789062 76.042969 52.714844 C 76.675781 53.195312 77.175781 54.023438 77.996094 54.300781 C 77.996094 54.28125 77.996094 54.261719 77.996094 54.238281 C 77.976562 54.238281 77.957031 54.238281 77.933594 54.238281 C 77.773438 53.992188 77.523438 53.890625 77.324219 53.691406 C 76.847656 53.222656 76.3125 52.640625 75.917969 52.101562 C 74.804688 50.589844 73.824219 48.9375 72.925781 47.214844 C 72.5 46.394531 72.128906 45.488281 71.765625 44.652344 C 71.628906 44.328125 71.628906 43.839844 71.339844 43.675781 C 70.945312 44.289062 70.363281 44.785156 70.058594 45.507812 C 69.570312 46.664062 69.507812 48.074219 69.328125 49.535156 C 69.21875 49.574219 69.265625 49.546875 69.203125 49.597656 C 68.355469 49.390625 68.054688 48.515625 67.738281 47.765625 C 66.9375 45.863281 66.789062 42.804688 67.492188 40.621094 C 67.675781 40.054688 68.496094 38.273438 68.167969 37.75 C 68.007812 37.226562 67.484375 36.925781 67.191406 36.527344 C 66.828125 36.035156 66.464844 35.386719 66.214844 34.816406 C 65.558594 33.335938 64.941406 31.613281 64.25 30.113281 C 63.921875 29.398438 63.363281 28.675781 62.90625 28.039062 C 62.398438 27.335938 61.832031 26.816406 61.441406 25.964844 C 61.300781 25.664062 61.109375 25.175781 61.316406 24.863281 C 61.382812 24.652344 61.476562 24.566406 61.683594 24.496094 C 62.039062 24.222656 63.023438 24.585938 63.394531 24.742188 C 64.371094 25.148438 65.191406 25.535156 66.019531 26.085938 C 66.417969 26.351562 66.820312 26.859375 67.300781 27.003906 C 67.484375 27.003906 67.667969 27.003906 67.851562 27.003906 C 68.710938 27.199219 69.671875 27.066406 70.476562 27.308594 C 71.894531 27.738281 73.167969 28.410156 74.320312 29.140625 C 77.839844 31.363281 80.71875 34.523438 82.6875 38.300781 C 83.003906 38.910156 83.140625 39.488281 83.417969 40.132812 C 83.980469 41.429688 84.691406 42.769531 85.25 44.039062 C 85.808594 45.308594 86.355469 46.585938 87.144531 47.644531 C 87.558594 48.199219 89.164062 48.496094 89.890625 48.804688 C 90.402344 49.019531 91.238281 49.242188 91.722656 49.535156 C 92.648438 50.09375 93.542969 50.757812 94.410156 51.367188 C 94.851562 51.671875 96.179688 52.339844 96.246094 52.894531 Z M 96.246094 52.894531 "/>
<path style=" stroke:none;fill-rule:nonzero;fill:rgb(100%,100%,100%);fill-opacity:1;" d="M 68.953125 29.632812 C 68.507812 29.621094 68.191406 29.679688 67.855469 29.753906 C 67.855469 29.773438 67.855469 29.792969 67.855469 29.816406 C 67.875 29.816406 67.894531 29.816406 67.917969 29.816406 C 68.132812 30.253906 68.507812 30.539062 68.769531 30.917969 C 68.976562 31.34375 69.175781 31.769531 69.382812 32.199219 C 69.402344 32.175781 69.421875 32.160156 69.441406 32.136719 C 69.820312 31.871094 69.992188 31.445312 69.992188 30.792969 C 69.839844 30.632812 69.816406 30.433594 69.683594 30.242188 C 69.511719 29.988281 69.171875 29.84375 68.953125 29.632812 Z M 68.953125 29.632812 "/>
</g>
</svg>
